<?xml version="1.0" standalone="no"?>
<!DOCTYPE svg PUBLIC "-//W3C//DTD SVG 20010904//EN"
 "http://www.w3.org/TR/2001/REC-SVG-20010904/DTD/svg10.dtd">
<svg version="1.0" xmlns="http://www.w3.org/2000/svg"
 width="1481.000000pt" height="1481.000000pt" viewBox="0 0 1481.000000 1481.000000"
 preserveAspectRatio="xMidYMid meet">
<metadata>
Created by potrace 1.11, written by Peter Selinger 2001-2013
</metadata>
<g transform="translate(0.000000,1481.000000) scale(0.100000,-0.100000)"
fill="#000000" stroke="none">
<path d="M0 7410 l0 -4760 7400 0 7400 0 2 2380 c2 1309 2 3451 0 4760 l-2
2380 -7400 0 -7400 0 0 -4760z m5002 4465 c745 -99 1359 -646 1544 -1376 45
-180 54 -279 54 -636 l0 -333 -519 0 -520 0 -3 338 c-4 319 -5 341 -27 407
-74 225 -215 391 -416 490 -176 88 16 80 -2002 83 l-1793 2 0 -737 0 -738 -98
-45 c-209 -96 -390 -221 -561 -385 -125 -120 -226 -240 -306 -361 -32 -49 -62
-93 -67 -99 -4 -5 -8 759 -8 1698 l0 1707 2304 0 c1990 0 2320 -2 2418 -15z
m5240 0 c745 -99 1359 -646 1544 -1376 45 -180 54 -279 54 -636 l0 -333 -519
0 -520 0 -3 338 c-4 319 -5 341 -27 407 -74 225 -215 391 -416 490 -176 87 6
80 -1922 83 -1212 2 -1713 5 -1713 13 0 6 -27 65 -60 131 -105 210 -209 355
-375 527 -127 131 -212 203 -351 297 -54 36 -101 68 -103 70 -2 2 964 4 2147
4 1853 0 2167 -2 2264 -15z m4278 -2297 c0 -2507 2 -2395 -54 -2617 -166 -657
-681 -1171 -1339 -1337 -176 -45 -284 -54 -659 -54 l-348 0 0 519 0 520 353 3
c397 4 407 6 562 83 201 99 340 263 417 490 l23 70 3 1798 2 1797 -760 0
c-541 0 -760 3 -760 11 0 6 -27 65 -60 131 -105 210 -209 355 -375 527 -127
131 -212 203 -351 297 -54 36 -101 68 -103 70 -2 2 773 4 1722 4 l1727 0 0
-2312z m-10409 935 c-56 -84 -99 -174 -124 -262 l-22 -76 -3 -1642 -2 -1643
-520 0 -520 0 0 1608 c0 1032 4 1646 10 1717 11 110 42 282 60 330 l10 25 575
0 575 0 -39 -57z m5240 0 c-56 -84 -99 -174 -124 -262 l-22 -76 -3 -1642 -2
-1643 -520 0 -520 0 0 1608 c0 1032 4 1646 10 1717 11 110 42 282 60 330 l10
25 575 0 575 0 -39 -57z m-6711 -1782 l0 -519 -322 -4 c-372 -5 -408 -11 -571
-95 -76 -39 -109 -64 -187 -143 -76 -76 -104 -113 -143 -186 -26 -51 -57 -127
-70 -170 l-22 -79 -3 -1782 -2 -1783 738 0 739 0 62 -127 c170 -346 413 -625
731 -835 58 -39 107 -72 109 -74 2 -2 -766 -4 -1707 -4 l-1712 0 0 2263 c0
1445 4 2303 10 2377 45 499 291 958 685 1277 209 169 508 309 773 363 154 31
248 37 585 39 l307 1 0 -519z m5240 -1 l0 -520 -1820 0 -1820 0 0 520 0 520
1820 0 1820 0 0 -520z m5115 492 c61 -12 130 -27 155 -35 l45 -13 3 -578 2
-578 -47 35 c-69 50 -184 105 -272 130 l-76 22 -1662 3 -1663 2 0 521 0 520
1703 -4 c1695 -3 1702 -3 1812 -25z m-6395 -2944 c0 -1768 0 -1738 -50 -1939
-11 -45 -20 -83 -20 -85 0 -2 -261 -4 -580 -4 l-580 0 36 47 c45 59 95 157
125 248 l24 70 3 1658 2 1657 520 0 520 0 0 -1652z m5240 0 c0 -1768 0 -1738
-50 -1939 -11 -45 -20 -83 -20 -85 0 -2 -261 -4 -580 -4 l-580 0 36 47 c45 59
95 157 125 248 l24 70 3 1658 2 1657 520 0 520 0 0 -1652z m-10182 477 c60
-42 177 -99 257 -122 56 -17 162 -18 1713 -21 l1652 -2 0 -520 0 -520 -1642 0
c-1094 0 -1673 4 -1733 11 -49 5 -138 22 -197 35 l-108 26 0 574 c0 316 2 574
5 574 3 0 27 -16 53 -35z m8862 -665 l0 -520 -1820 0 -1820 0 0 520 0 520
1820 0 1820 0 0 -520z m4000 -1455 l0 -1705 -2287 0 c-1503 0 -2326 4 -2398
10 -500 48 -955 292 -1272 685 -121 150 -243 376 -307 566 -76 230 -96 398
-96 812 l0 287 519 0 519 0 4 -322 c5 -372 12 -411 95 -572 68 -129 200 -261
329 -329 51 -26 127 -57 170 -70 l79 -22 1802 -3 1803 -2 2 736 c3 643 5 738
18 745 8 5 67 34 130 64 214 105 392 237 575 426 110 113 204 232 272 342 20
31 37 57 39 57 2 0 4 -767 4 -1705z m-10558 333 c5 -372 12 -411 95 -572 68
-129 200 -261 329 -329 51 -26 127 -57 170 -70 l79 -22 1702 -5 1702 -5 64
-130 c172 -348 428 -636 747 -841 l92 -59 -2109 -3 c-1428 -2 -2147 1 -2228 8
-891 79 -1591 774 -1675 1665 -5 61 -10 239 -10 398 l0 287 519 0 519 0 4
-322z"/>
</g>
</svg>
